<svg xmlns="http://www.w3.org/2000/svg" width="80" height="80" viewBox="0 0 80 80"><g transform="translate(-2104 -1135)"><circle cx="40" cy="40" r="40" transform="translate(2104 1135)" fill="#689f38"/><path d="M36,2A34.009,34.009,0,0,0,22.766,67.329,34.009,34.009,0,0,0,49.234,4.671,33.785,33.785,0,0,0,36,2m0-2A36,36,0,1,1,0,36,36,36,0,0,1,36,0Z" transform="translate(2108 1139)" fill="#fff"/><path d="M15,50V43.374A20.007,20.007,0,0,1,5.858,9.858,19.874,19.874,0,0,1,15,4.626V-2h8V4.222A19.847,19.847,0,0,1,34.142,9.858a20.249,20.249,0,0,1,2.684,3.317l-5.888,5.888A12.053,12.053,0,0,0,23,12.383V35.616a12.053,12.053,0,0,0,7.937-6.68l5.887,5.888a20.14,20.14,0,0,1-2.683,3.317A19.848,19.848,0,0,1,23,43.778V50ZM8,24a12.016,12.016,0,0,0,7,10.909V13.091A12.015,12.015,0,0,0,8,24Z" transform="translate(2124 1151)" fill="#fff"/><path d="M83,124c-.331,0-.667,0-1-.012V44.012C82.347,44,82.684,44,83,44a40,40,0,1,1,0,80Z" transform="translate(2061 1091)" fill="rgba(0,0,0,0.1)"/></g></svg>